# xmcd
#
# Track frame offsets: 
#        150
#        17805
#        35327
#        49350
#        67477
#        83000
#        94645
#        119647
#        140230
#        158570
#        173115
#        188610
#
# Disc length: 2756 seconds
#
# Revision: 1
# Processed by: cddbd v1.5.2PL0 Copyright (c) Steve Scherf et al.
# Submitted via: ExactAudioCopy v1.0b3
#
DISCID=a60ac20c
DTITLE=Louise Hoffsten - Så speciell
DYEAR=2007
DGENRE=blues
TTITLE0=Med dina händer
TTITLE1=Som varje dag
TTITLE2=Så speciell
TTITLE3=Mycket mer och lite till
TTITLE4=Så jävla underbar
TTITLE5=Slätten
TTITLE6=Vem av oss två
TTITLE7=Sju steg till dörren
TTITLE8=Lämna mig varsamt
TTITLE9=Min bästa sång
TTITLE10=Letar inte längre
TTITLE11=Ett rum
EXTD=
EXTT0=
EXTT1=
EXTT2=
EXTT3=
EXTT4=
EXTT5=
EXTT6=
EXTT7=
EXTT8=
EXTT9=
EXTT10=
EXTT11=
PLAYORDER=
